<svg width="229" height="34" viewBox="0 0 229 34" fill="none" xmlns="http://www.w3.org/2000/svg">
<path d="M57.86 27L66.68 7.4H70.264L79.112 27H75.304L67.716 9.332H69.172L61.612 27H57.86ZM61.92 22.464L62.9 19.608H73.484L74.464 22.464H61.92ZM87.3232 27.196C86.0539 27.196 84.9339 26.9627 83.9632 26.496C82.9926 26.0107 82.2366 25.2827 81.6952 24.312C81.1539 23.3227 80.8832 22.0813 80.8832 20.588V12.048H84.3832V20.112C84.3832 21.456 84.6819 22.464 85.2792 23.136C85.8952 23.7893 86.7632 24.116 87.8832 24.116C88.7046 24.116 89.4139 23.948 90.0112 23.612C90.6272 23.276 91.1032 22.772 91.4392 22.1C91.7939 21.428 91.9712 20.5973 91.9712 19.608V12.048H95.4712V27H92.1392V22.968L92.7272 24.2C92.2232 25.1707 91.4859 25.9173 90.5152 26.44C89.5446 26.944 88.4806 27.196 87.3232 27.196ZM105.682 27.196C104.039 27.196 102.77 26.776 101.874 25.936C100.978 25.0773 100.53 23.8173 100.53 22.156V8.744H104.03V22.072C104.03 22.7813 104.207 23.332 104.562 23.724C104.935 24.116 105.448 24.312 106.102 24.312C106.886 24.312 107.539 24.1067 108.062 23.696L109.042 26.188C108.631 26.524 108.127 26.776 107.53 26.944C106.932 27.112 106.316 27.196 105.682 27.196ZM98.0658 14.96V12.16H108.034V14.96H98.0658ZM118.149 27.196C116.618 27.196 115.255 26.8693 114.061 26.216C112.866 25.544 111.923 24.6293 111.233 23.472C110.542 22.3147 110.197 20.9987 110.197 19.524C110.197 18.0307 110.542 16.7147 111.233 15.576C111.923 14.4187 112.866 13.5133 114.061 12.86C115.255 12.2067 116.618 11.88 118.149 11.88C119.698 11.88 121.07 12.2067 122.265 12.86C123.478 13.5133 124.421 14.4093 125.093 15.548C125.783 16.6867 126.129 18.012 126.129 19.524C126.129 20.9987 125.783 22.3147 125.093 23.472C124.421 24.6293 123.478 25.544 122.265 26.216C121.07 26.8693 119.698 27.196 118.149 27.196ZM118.149 24.2C119.007 24.2 119.773 24.0133 120.445 23.64C121.117 23.2667 121.639 22.7253 122.013 22.016C122.405 21.3067 122.601 20.476 122.601 19.524C122.601 18.5533 122.405 17.7227 122.013 17.032C121.639 16.3227 121.117 15.7813 120.445 15.408C119.773 15.0347 119.017 14.848 118.177 14.848C117.318 14.848 116.553 15.0347 115.881 15.408C115.227 15.7813 114.705 16.3227 114.313 17.032C113.921 17.7227 113.725 18.5533 113.725 19.524C113.725 20.476 113.921 21.3067 114.313 22.016C114.705 22.7253 115.227 23.2667 115.881 23.64C116.553 24.0133 117.309 24.2 118.149 24.2ZM134.096 27.196C132.845 27.196 131.641 27.0373 130.484 26.72C129.345 26.384 128.44 25.9827 127.768 25.516L129.112 22.856C129.784 23.2853 130.586 23.64 131.52 23.92C132.453 24.2 133.386 24.34 134.32 24.34C135.421 24.34 136.214 24.1907 136.7 23.892C137.204 23.5933 137.456 23.192 137.456 22.688C137.456 22.2773 137.288 21.9693 136.952 21.764C136.616 21.54 136.177 21.372 135.636 21.26C135.094 21.148 134.488 21.0453 133.816 20.952C133.162 20.8587 132.5 20.7373 131.828 20.588C131.174 20.42 130.577 20.1867 130.036 19.888C129.494 19.5707 129.056 19.1507 128.72 18.628C128.384 18.1053 128.216 17.4147 128.216 16.556C128.216 15.604 128.486 14.7827 129.028 14.092C129.569 13.3827 130.325 12.8413 131.296 12.468C132.285 12.076 133.452 11.88 134.796 11.88C135.804 11.88 136.821 11.992 137.848 12.216C138.874 12.44 139.724 12.7573 140.396 13.168L139.052 15.828C138.342 15.3987 137.624 15.1093 136.896 14.96C136.186 14.792 135.477 14.708 134.768 14.708C133.704 14.708 132.91 14.8667 132.388 15.184C131.884 15.5013 131.632 15.9027 131.632 16.388C131.632 16.836 131.8 17.172 132.136 17.396C132.472 17.62 132.91 17.7973 133.452 17.928C133.993 18.0587 134.59 18.1707 135.244 18.264C135.916 18.3387 136.578 18.46 137.232 18.628C137.885 18.796 138.482 19.0293 139.024 19.328C139.584 19.608 140.032 20.0093 140.368 20.532C140.704 21.0547 140.872 21.736 140.872 22.576C140.872 23.5093 140.592 24.3213 140.032 25.012C139.49 25.7027 138.716 26.244 137.708 26.636C136.7 27.0093 135.496 27.196 134.096 27.196ZM150.914 27.196C149.253 27.196 147.797 26.8693 146.546 26.216C145.314 25.544 144.353 24.6293 143.662 23.472C142.99 22.3147 142.654 20.9987 142.654 19.524C142.654 18.0307 142.981 16.7147 143.634 15.576C144.306 14.4187 145.221 13.5133 146.378 12.86C147.554 12.2067 148.889 11.88 150.382 11.88C151.838 11.88 153.135 12.1973 154.274 12.832C155.413 13.4667 156.309 14.3627 156.962 15.52C157.615 16.6773 157.942 18.04 157.942 19.608C157.942 19.7573 157.933 19.9253 157.914 20.112C157.914 20.2987 157.905 20.476 157.886 20.644H145.426V18.32H156.038L154.666 19.048C154.685 18.1893 154.507 17.4333 154.134 16.78C153.761 16.1267 153.247 15.6133 152.594 15.24C151.959 14.8667 151.222 14.68 150.382 14.68C149.523 14.68 148.767 14.8667 148.114 15.24C147.479 15.6133 146.975 16.136 146.602 16.808C146.247 17.4613 146.07 18.236 146.07 19.132V19.692C146.07 20.588 146.275 21.3813 146.686 22.072C147.097 22.7627 147.675 23.2947 148.422 23.668C149.169 24.0413 150.027 24.228 150.998 24.228C151.838 24.228 152.594 24.0973 153.266 23.836C153.938 23.5747 154.535 23.164 155.058 22.604L156.934 24.76C156.262 25.544 155.413 26.1507 154.386 26.58C153.378 26.9907 152.221 27.196 150.914 27.196ZM161.304 27V12.048H164.636V16.164L164.244 14.96C164.692 13.952 165.392 13.1867 166.344 12.664C167.314 12.1413 168.518 11.88 169.956 11.88V15.212C169.806 15.1747 169.666 15.156 169.536 15.156C169.405 15.1373 169.274 15.128 169.144 15.128C167.818 15.128 166.764 15.52 165.98 16.304C165.196 17.0693 164.804 18.2173 164.804 19.748V27H161.304ZM177.448 27L171.036 12.048H174.676L180.192 25.236H178.4L184.112 12.048H187.472L181.06 27H177.448ZM189.659 27V12.048H193.159V27H189.659ZM191.423 9.584C190.77 9.584 190.229 9.37867 189.799 8.968C189.389 8.55733 189.183 8.06267 189.183 7.484C189.183 6.88667 189.389 6.392 189.799 6C190.229 5.58933 190.77 5.384 191.423 5.384C192.077 5.384 192.609 5.58 193.019 5.972C193.449 6.34533 193.663 6.82133 193.663 7.4C193.663 8.016 193.458 8.53867 193.047 8.968C192.637 9.37867 192.095 9.584 191.423 9.584ZM204.613 27.196C203.045 27.196 201.645 26.8693 200.413 26.216C199.2 25.544 198.248 24.6293 197.557 23.472C196.866 22.3147 196.521 20.9987 196.521 19.524C196.521 18.0307 196.866 16.7147 197.557 15.576C198.248 14.4187 199.2 13.5133 200.413 12.86C201.645 12.2067 203.045 11.88 204.613 11.88C206.069 11.88 207.348 12.1787 208.449 12.776C209.569 13.3547 210.418 14.2133 210.997 15.352L208.309 16.92C207.861 16.2107 207.31 15.688 206.657 15.352C206.022 15.016 205.332 14.848 204.585 14.848C203.726 14.848 202.952 15.0347 202.261 15.408C201.57 15.7813 201.029 16.3227 200.637 17.032C200.245 17.7227 200.049 18.5533 200.049 19.524C200.049 20.4947 200.245 21.3347 200.637 22.044C201.029 22.7347 201.57 23.2667 202.261 23.64C202.952 24.0133 203.726 24.2 204.585 24.2C205.332 24.2 206.022 24.032 206.657 23.696C207.31 23.36 207.861 22.8373 208.309 22.128L210.997 23.696C210.418 24.816 209.569 25.684 208.449 26.3C207.348 26.8973 206.069 27.196 204.613 27.196ZM220.832 27.196C219.17 27.196 217.714 26.8693 216.464 26.216C215.232 25.544 214.27 24.6293 213.58 23.472C212.908 22.3147 212.572 20.9987 212.572 19.524C212.572 18.0307 212.898 16.7147 213.552 15.576C214.224 14.4187 215.138 13.5133 216.296 12.86C217.472 12.2067 218.806 11.88 220.3 11.88C221.756 11.88 223.053 12.1973 224.192 12.832C225.33 13.4667 226.226 14.3627 226.88 15.52C227.533 16.6773 227.86 18.04 227.86 19.608C227.86 19.7573 227.85 19.9253 227.832 20.112C227.832 20.2987 227.822 20.476 227.804 20.644H215.344V18.32H225.956L224.584 19.048C224.602 18.1893 224.425 17.4333 224.052 16.78C223.678 16.1267 223.165 15.6133 222.512 15.24C221.877 14.8667 221.14 14.68 220.3 14.68C219.441 14.68 218.685 14.8667 218.032 15.24C217.397 15.6133 216.893 16.136 216.52 16.808C216.165 17.4613 215.988 18.236 215.988 19.132V19.692C215.988 20.588 216.193 21.3813 216.604 22.072C217.014 22.7627 217.593 23.2947 218.34 23.668C219.086 24.0413 219.945 24.228 220.916 24.228C221.756 24.228 222.512 24.0973 223.184 23.836C223.856 23.5747 224.453 23.164 224.976 22.604L226.852 24.76C226.18 25.544 225.33 26.1507 224.304 26.58C223.296 26.9907 222.138 27.196 220.832 27.196Z" fill="black"/>
<path d="M15 3L10 11H40L36 3H15Z" fill="#2563EB"/>
<path d="M10 18H0L3 24H13L10 18Z" fill="#2563EB"/>
<path d="M17 31L14 25H37L34 31H17Z" fill="#2563EB"/>
<path d="M42 18L38 24H47L51 18H42Z" fill="#2563EB"/>
</svg>
